<svg id="customer-support" xmlns="http://www.w3.org/2000/svg" width="502.188" height="489.453" viewBox="0 0 502.188 489.453">
  <path id="Path_4" data-name="Path 4" d="M230-499.5a221.917,221.917,0,0,0-129.5,63,221.93,221.93,0,0,0-64,138.7l-.7,8.7L30-285.6A54.4,54.4,0,0,0,6.4-252.1c-2,9.5-2,69.8.1,79.4,4,19.2,20.5,35.9,39.2,39.8,17.9,3.7,33.4-2.9,41.1-17.6l2.7-5v-114l-2.7-5c-2.8-5.4-9.6-12.3-14.5-14.9a56.346,56.346,0,0,0-7.7-2.7l-4.7-1.2.6-4.6c4.1-31.5,8.7-47.5,20.6-71.3C109-424.9,162.2-464,224.6-474.6c12.8-2.1,37.8-2.9,50.9-1.5,60.2,6.5,112.1,38.1,144.7,88.1,15.7,24,26.3,52.2,29.8,79,2.3,17.8,2.6,15.6-2.7,16.9a59.69,59.69,0,0,0-7.6,2.7c-4.9,2.6-11.7,9.5-14.5,14.9l-2.7,5v114l2.7,5c2.8,5.4,9.6,12.3,14.5,14.9a59.69,59.69,0,0,0,7.6,2.7l4.7,1.1v15.2c0,16.8-1.2,23.5-5.8,32-3.9,7.2-12.7,15.8-20,19.5C416.1-60,409.9-59,387.5-59h-20l-2.9-5.6A39.562,39.562,0,0,0,346-81.2c-5.2-2.1-7.1-2.2-31.5-2.2-25,0-26.2.1-32,2.3-8.4,3.4-17.4,12.4-20.4,20.6-3.3,8.6-2.7,21.6,1.3,29.3a38.816,38.816,0,0,0,17.2,16.8l5.9,2.9h56l5.7-2.8c6.6-3.2,13.6-9.9,16.9-16.2l2.3-4.3,24-.5c27-.5,30.8-1.1,44.1-7.6A72.217,72.217,0,0,0,468.6-76c6.1-12.3,6.7-15.6,7.2-38.7l.4-21.1,5.7-3.6a53.154,53.154,0,0,0,23.7-33.5c2-9.4,2-69.8,0-79.2a54.156,54.156,0,0,0-23.5-33.4l-5.8-3.6-1.2-12.2c-4.5-46.3-21.4-86.4-51.9-122.7-30.2-36.1-75.9-63.1-122.5-72.5C277.6-501.1,252-502.2,230-499.5ZM62.9-266.4l3.1,2.6v102.5l-2.6,2.7c-5.7,5.6-19.2,2.2-27.2-6.9-6.8-7.8-7.2-10.2-7.2-47,0-36.7.4-39.2,7.1-46.9C44.3-268.7,56.4-271.9,62.9-266.4Zm404.8.2c5.7,3,12,10.5,13.8,16.5,1.2,4,1.5,11.6,1.5,37.2,0,36.8-.4,39.2-7.2,47-8,9.1-21.5,12.5-27.2,6.9l-2.6-2.7V-263.7l2.8-2.8c2.5-2.5,3.2-2.7,8.7-2.2A33.169,33.169,0,0,1,467.7-266.2ZM341.6-55.6c2.8,2.8,3.4,4.2,3.4,7.5,0,5.3-2.2,9.7-6,11.6-4.2,2.1-44.7,2.2-48.9.1-4.1-2.2-6.1-5.9-6.1-11.2,0-3.9.5-5.1,3.4-8l3.4-3.4h47.4Z" transform="translate(-4.912 500.953)" fill="#fff"/>
  <path id="Path_5" data-name="Path 5" d="M171.5-384c-20,2.7-36.1,16.7-42.2,36.5-1.7,5.5-1.8,10.6-1.8,65.5,0,58.8,0,59.6,2.2,66.6a51.413,51.413,0,0,0,41.6,35.5l7.7,1.1v14.2c0,16.8,1.4,22.8,6.6,28.6,7.3,8,19,10.6,28.4,6.2,3.1-1.4,12.2-9.6,28.5-25.6l24-23.6H301c19,0,37.4-.5,41-1,7.8-1.2,18.8-6.5,25.2-12s12.4-14.8,15.1-23.4c2.2-7,2.2-7.8,2.2-66.6,0-54.9-.1-60-1.8-65.5a52.074,52.074,0,0,0-33.6-34.7l-6.6-2.3-82.5-.1C214.6-384.7,174.8-384.4,171.5-384ZM344-358.4c6.7,3.1,10.6,6.8,13.7,13.2l2.8,5.7V-282c0,56.2,0,57.6-2.1,62-3,6.5-6.9,10.7-12.8,13.8l-5.1,2.7-42.1.5-42.1.5-25.8,25.2c-14.1,13.9-26.1,25.3-26.6,25.3s-.9-9.5-.9-21c0-29.1-.2-29.4-20-30.2-9.2-.4-12.3-.9-15.6-2.6-6.6-3.4-10.1-6.9-13.1-13l-2.8-5.7v-57c0-44.3.3-57.8,1.3-60.7a27.929,27.929,0,0,1,20.3-17.7c2.4-.5,40.9-.8,85.4-.8C338.4-360.5,339.6-360.5,344-358.4Z" transform="translate(-4.912 500.953)" fill="#fff"/>
  <path id="Path_6" data-name="Path 6" d="M192.8-297c-7.2,2.2-12.8,9.6-12.8,17,0,8.1,6.5,15.8,14.7,17.5,6.6,1.3,15.5-3.2,18.8-9.6,1.9-3.6,1.9-12.2,0-15.8-2-3.9-6.9-7.8-11.3-9.1C198-298.1,196.6-298.1,192.8-297Z" transform="translate(-4.912 500.953)" fill="#fff"/>
  <path id="Path_7" data-name="Path 7" d="M250.2-296.6c-4.9,1.7-9.8,7-11.2,12.1-3.5,12.5,9,25.2,21.1,21.6,9.7-2.9,15.4-12.6,12.9-21.6-2-7.3-9.8-13.3-17-13.3A19.372,19.372,0,0,0,250.2-296.6Z" transform="translate(-4.912 500.953)" fill="#fff"/>
  <path id="Path_8" data-name="Path 8" d="M308.7-296.6a18.763,18.763,0,0,0-10.3,8.8c-1.8,3.5-1.8,12.1.1,15.7,3.3,6.4,12.2,10.9,18.8,9.6,8-1.7,14.7-9.8,14.7-17.6C331.9-291.8,319.5-300.6,308.7-296.6Z" transform="translate(-4.912 500.953)" fill="#fff"/>
</svg>
